<?xml version="1.0" encoding="UTF-8" standalone="no"?>
<svg
   version="1.1"
   id="Layer_1"
   x="0px"
   y="0px"
   width="255025"
   viewBox="0 0 255025 137641"
   enable-background="new 0 0 505 371"
   xml:space="preserve"
   height="137641"
   xmlns="http://www.w3.org/2000/svg"
   xmlns:svg="http://www.w3.org/2000/svg"><defs
   id="defs35" />

<path
   fill="#3d78ab"
   opacity="1"
   stroke="none"
   d="m 340.08096,157.69038 c 2.39922,-0.19605 4.54486,-0.19605 7.27258,-0.19605 0,1.86616 0,3.76891 0,5.67166 0,5.0383 -0.20077,10.08658 0.0383,15.11298 0.66968,14.07969 -8.03563,18.98505 -21.34271,15.38942 0,-2.36348 0,-4.77592 0,-6.46986 3.94712,-0.33684 7.77487,-0.38344 11.45579,-1.15882 1.02217,-0.21532 1.60892,-2.59184 2.12301,-4.34669 -4.59571,2.40864 -8.94758,2.52598 -12.94024,-0.48249 -4.12014,-3.10448 -5.304,-7.65715 -5.16692,-12.71523 0.096,-3.54383 0.0185,-7.09257 0.0185,-10.92116 2.49561,0 4.72365,0 7.58471,0 0,2.0535 -0.004,4.19977 10e-4,6.34598 0.006,1.96576 -0.0614,3.93649 0.0511,5.89616 0.23958,4.17052 1.97153,6.25675 5.07399,6.2832 3.29218,0.0281 5.20984,-2.25389 5.33332,-6.44942 0.11541,-3.92015 0.16506,-7.84237 0.49718,-11.95968 z"
   id="path2"
   style="stroke-width:0.730252" />
<path
   fill="#3976a9"
   opacity="1"
   stroke="none"
   d="m 138.98412,157.95345 c 5.4281,-1.79232 9.77689,-0.35518 13.1988,3.75967 3.6295,4.3645 4.09353,9.44234 1.82083,14.50024 -2.29054,5.09761 -6.7777,7.18729 -12.0562,7.20897 -7.9222,0.0326 -13.15423,-5.20421 -13.29367,-13.24923 -0.12986,-7.49347 -0.0277,-14.99111 -0.0277,-22.71938 2.51067,0 4.84336,0 7.53159,0 0,3.82963 0,7.58629 0,11.76525 1.15086,-0.50692 1.85565,-0.81734 2.82638,-1.26552 m -1.61373,16.28924 c 0.45006,0.40624 0.84029,0.93727 1.36018,1.19788 2.77412,1.39059 5.87365,1.35778 7.45153,-1.23917 1.10766,-1.82302 1.16614,-4.94255 0.50565,-7.10365 -0.87829,-2.87374 -3.81296,-3.07424 -6.43806,-2.54325 -3.70669,0.74973 -4.76684,3.93517 -2.8793,9.68819 z"
   id="path3"
   style="stroke-width:0.730252" />
<path
   fill="#3976a9"
   opacity="1"
   stroke="none"
   d="m 230.4133,177.66499 c -0.75978,-2.19609 -1.90457,-4.13289 -1.95679,-6.10002 -0.21184,-7.98087 -0.088,-15.97103 -0.088,-24.1509 2.46759,0 4.81406,0 7.49356,0 0,3.93475 0,7.70042 0,11.57676 9.33429,-3.31163 15.99453,-0.67608 18.40109,7.0319 1.92068,6.15179 -0.32293,12.71604 -5.5919,15.62918 -5.44795,3.01214 -13.8616,2.47978 -18.25793,-3.98692 m 5.5677,-8.79939 c -0.25754,3.26445 0.21113,6.1633 3.88126,7.14482 3.09547,0.82786 6.19127,-0.70726 7.04493,-3.35298 1.13443,-3.51587 -0.14506,-6.81528 -3.07171,-7.92098 -3.36434,-1.27106 -6.16167,0.028 -7.85448,4.12914 z"
   id="path4"
   style="stroke-width:0.730252" />
<path
   fill="#3875a8"
   opacity="1"
   stroke="none"
   d="m 361.91838,171.57795 c -0.0122,-7.29185 2.96967,-11.97349 8.52227,-13.74519 6.12346,-1.95382 12.61679,-0.0858 15.71558,4.90843 1.17798,1.89847 1.8093,4.26461 2.23303,6.50786 0.42885,2.27033 0.15821,4.66962 0.44355,6.9802 0.26666,2.15914 0.86082,4.276 1.38485,6.76269 -3.1476,-0.4922 -6.78953,2.01252 -8.48459,-2.65793 -9.80403,5.71677 -17.31553,2.45202 -19.81469,-8.75606 m 18.31501,2.05114 c 0.17809,-1.08393 0.76878,-2.32131 0.44909,-3.22009 -0.68251,-1.91878 -1.43783,-4.56815 -2.90138,-5.24195 -1.72705,-0.79514 -4.72118,-0.51701 -6.25358,0.60212 -1.3034,0.95186 -1.98911,3.84276 -1.76262,5.72676 0.60743,5.05243 5.77133,6.26153 10.46849,2.13316 z"
   id="path5"
   style="stroke-width:0.730252" />
<path
   fill="#3b77aa"
   opacity="1"
   stroke="none"
   d="m 266.66985,174.5059 c 2.61397,0.38245 5.21887,0.86945 7.84537,1.10716 1.51369,0.137 3.06222,-0.12896 4.52129,-0.20949 0.18708,0.39362 0.37488,0.60289 0.37177,0.80914 -0.10817,7.16508 1.71599,6.16406 -6.84539,7.10542 -5.51006,0.60583 -10.67396,-0.7362 -13.70949,-5.95005 -2.85708,-4.90729 -2.54823,-10.07799 0.52106,-14.91469 3.9113,-6.16364 15.16866,-7.17989 20.11723,-1.87221 3.49405,3.74759 2.38357,9.66104 -2.65577,11.77318 -2.64609,1.10903 -5.79779,0.95667 -9.19505,1.22357 -0.90021,-0.12927 -1.32653,-0.10823 -1.75284,-0.0871 0.26061,0.33838 0.52121,0.67673 0.78182,1.01509 m 3.8857,-10.03833 c -1.65785,0.57846 -3.31572,1.15692 -5.6789,1.98148 4.72295,2.30207 6.92797,2.05279 9.08128,-0.79245 -1.01809,-0.42471 -1.92085,-0.80129 -3.40238,-1.18903 z"
   id="path6"
   style="stroke-width:0.730252" />
<path
   fill="#3a76a9"
   opacity="1"
   stroke="none"
   d="m 206.41809,181.72189 c -6.34098,-4.84333 -8.06948,-11.59283 -4.80266,-17.85378 2.9265,-5.60875 9.92158,-8.14333 16.57028,-6.0041 3.8136,1.22704 6.46991,4.53089 6.38369,7.93977 -0.0859,3.39539 -2.50206,6.4739 -6.50916,7.34033 -2.94045,0.6358 -6.04197,0.49276 -9.41708,0.72011 4.23249,3.52388 8.98961,1.28602 13.39505,1.59929 0.1392,0.18247 0.38243,0.3614 0.39403,0.5548 0.38951,6.49648 0.40438,6.79677 -5.91968,7.19559 -3.23928,0.20431 -6.55674,-0.88762 -10.09447,-1.49201 m 9.95671,-16.55409 c -2.90259,-1.29865 -5.40514,-0.81767 -7.62825,1.66369 4.61109,2.06393 6.63536,1.73594 7.62825,-1.66369 z"
   id="path7"
   style="stroke-width:0.730252" />
<path
   fill="#3d78ab"
   opacity="1"
   stroke="none"
   d="m 182.43001,175.8915 c 4.90931,0.0887 6.31574,-1.24324 6.39287,-5.91482 0.0667,-4.03909 0.0138,-8.0802 0.0138,-12.40188 2.58551,0 4.9078,0 7.46549,0 0,5.26117 0.50083,10.55635 -0.12661,15.70789 -0.78661,6.45846 -6.37782,10.37412 -13.0479,10.08164 -6.42552,-0.28176 -11.41124,-4.61488 -11.92653,-11.01012 -0.39022,-4.8428 -0.0773,-9.74484 -0.0773,-14.84243 2.37718,0 4.70684,0 7.3584,0 0,4.22768 -0.0865,8.2609 0.0307,12.28791 0.0767,2.63626 0.528,5.21239 3.91699,6.09181 z"
   id="path8"
   style="stroke-width:0.730252" />
<path
   fill="#3974ab"
   opacity="1"
   stroke="none"
   d="m 46.2144,133.78085 c 0.21722,3.57849 0.21722,7.00993 0.21722,10.58685 3.36771,0 6.25268,0 9.36457,0 0,1.66355 0,3.17953 0,4.8695 -4.73862,0 -9.41692,0 -14.37651,0 0,-3.4909 0,-6.90707 0,-10.64005 -3.39525,0 -6.52237,0 -9.68967,0 0,-1.78421 0,-3.24449 0,-4.96334 4.8545,0 9.56084,0 14.48439,0.14704 z"
   id="path9"
   style="stroke-width:0.570691" />
<path
   fill="#3974ab"
   opacity="1"
   stroke="none"
   d="m 95.46873,136.84441 c -1.5e-4,3.69992 -1.5e-4,7.13804 -1.5e-4,10.92361 -3.15527,0 -6.08628,0 -9.22696,0 0,3.12253 0,5.89732 0,8.87359 -1.77416,0 -3.33753,0 -5.05816,0 0,-4.56476 0,-9.08695 0,-13.90851 2.99393,0 5.84128,0 8.90008,0 0,-3.26127 0,-6.22772 0,-9.37246 1.81219,0 3.40747,0 5.38537,0 0,1.05446 0,2.13823 -1.8e-4,3.48377 z"
   id="path10"
   style="stroke-width:0.570691" />
<path
   fill="#3d77ad"
   opacity="1"
   stroke="none"
   d="m 34.6399,180.89545 c 6.54837,-0.002 6.54847,-0.002 6.55285,-5.99086 6.8e-4,-0.92576 9e-5,-1.85152 9e-5,-2.98235 1.71418,0 3.27654,0 5.01175,0 0,4.62712 0,9.1506 0,13.97211 -3.01299,0 -5.86685,0 -9.01734,0 0,3.23231 0,6.17977 0,9.34164 -1.78923,0 -3.27998,0 -5.02614,0 0,-4.55868 0,-9.18089 0,-14.15986 0.61,-0.0498 1.41294,-0.1153 2.47879,-0.18068 z"
   id="path11"
   style="stroke-width:0.570691" />
<path
   fill="#3b76ac"
   opacity="1"
   stroke="none"
   d="m 59.95186,140.50645 c -2.79609,-0.0494 -5.30178,-0.0494 -8.05935,-0.0494 0,-4.78693 0,-9.39725 0,-14.18211 1.43844,0 2.93765,0 4.82813,0 0,2.87048 0,5.79813 0,9.07603 3.2942,0 6.22635,0 9.25667,0 0,4.91277 0,9.4662 0,14.22306 -1.65069,0 -3.22498,0 -4.70055,0 -0.35251,-3.07298 -0.69351,-6.04554 -1.3249,-9.06755 z"
   id="path12"
   style="stroke-width:0.570691" />
<path
   fill="#3974ab"
   opacity="1"
   stroke="none"
   d="m 79.07354,184.02365 c -2.60476,-0.003 -4.91924,-0.003 -7.46931,-0.003 0,-1.60542 0,-3.12032 0,-4.81748 4.7085,0 9.37815,0 14.25203,0 0,3.52767 0,6.95788 0,10.70282 3.31434,0 6.44342,0 9.76241,0 0,1.75634 0,3.2046 0,4.88684 -4.82286,0 -9.67234,0 -14.82494,0 0,-2.92087 0.0936,-5.79857 -0.0654,-8.66314 -0.0401,-0.72259 -0.88792,-1.40319 -1.65483,-2.10607 z"
   id="path13"
   style="stroke-width:0.570691" />
<path
   fill="#3773aa"
   opacity="1"
   stroke="none"
   d="m 22.646,159.17126 c 1.7e-4,-2.3215 1.7e-4,-4.36712 1.7e-4,-6.69704 3.28118,0 6.3257,0 9.64414,0 0,-3.13849 0,-5.99568 0,-9.01313 1.78851,0 3.29538,0 4.98561,0 0,4.53333 0,9.07625 0,13.91685 -2.98612,0 -6.01707,0 -9.45503,0 0,3.29366 0,6.30892 0,9.44252 -1.92113,0 -3.42725,0 -5.17506,0 0,-2.53366 0,-4.95349 1.7e-4,-7.6492 z"
   id="path14"
   style="stroke-width:0.570691" />
<path
   fill="#3672aa"
   opacity="1"
   stroke="none"
   d="m 102.7559,161.48492 c 0.82656,0.40543 1.89339,0.79779 1.90516,1.21785 0.12254,4.37344 0.0755,8.75133 0.0755,13.31662 -3.13051,0 -6.00803,0 -9.17919,0 0,3.1133 0,6.04984 0,9.1451 -1.77406,0 -3.25309,0 -4.88708,0 0,-4.67052 0,-9.21544 0,-14.065 2.85255,0 5.69027,0 8.90909,0 0,-3.30785 0,-6.32781 0,-9.48856 1.23127,-0.0531 2.07915,-0.0897 3.17652,-0.12601 z"
   id="path15"
   style="stroke-width:0.570691" />
<path
   fill="#3974ab"
   opacity="1"
   stroke="none"
   d="m 81.02148,166.61588 c -0.92576,-0.0491 -1.58821,-0.0981 -2.31891,-0.15204 0,-1.55763 0,-3.01689 0,-4.74383 3.76636,0 7.3995,0 11.32385,0 0,-3.0163 0,-5.77755 0,-8.80895 4.36306,0 8.44807,0 12.76028,0 0,1.34541 0,2.86666 0,4.64836 -2.34536,0 -4.72048,0 -7.37645,0 0,3.09846 0,5.95036 0,9.05667 -4.89482,0 -9.51016,0 -14.38877,-2.1e-4 z"
   id="path16"
   style="stroke-width:0.570691" />
<path
   fill="#3974ab"
   opacity="1"
   stroke="none"
   d="m 70.44078,198.42537 c 2e-5,-1.83294 2e-5,-3.39355 2e-5,-5.16595 -3.10048,0 -5.87003,0 -8.88592,0 0,-4.89746 0,-9.58474 0,-14.43724 1.54279,0 3.04623,0 4.90914,0 0,1.84057 -9.2e-4,3.67856 2.1e-4,5.51656 0.002,3.86468 0.003,3.86487 4.12006,3.86651 1.53701,6.2e-4 3.07401,1.1e-4 4.81128,1.1e-4 0,4.7467 0,9.33915 0,14.06795 -1.56035,0 -3.06408,0 -4.95479,0 0,-1.21765 0,-2.39663 0,-3.84794 z"
   id="path17"
   style="stroke-width:0.570691" />
<path
   fill="#407bac"
   opacity="1"
   stroke="none"
   d="m 158.49558,174.70709 c 1.6e-4,-9.30401 1.6e-4,-18.24364 1.6e-4,-27.34533 2.59707,0 4.84124,0 7.34585,0 0,11.78488 0,23.51183 0,35.47999 -2.25839,0 -4.5868,0 -7.34614,0 0,-2.68166 0,-5.22596 1.3e-4,-8.13466 z"
   id="path18"
   style="stroke-width:0.730252" />
<path
   fill="#3773aa"
   opacity="1"
   stroke="none"
   d="m 57.62052,204.09009 c -2.11284,0 -3.9394,0 -6.0928,0 0,-2.99175 0,-5.83496 0,-8.94331 -3.26817,0 -6.21675,0 -9.33325,0 0,-1.71106 0,-3.15549 0,-4.81738 4.71214,0 9.38932,0 14.38113,0 0,2.79077 0,5.63696 0,8.69166 3.37092,0 6.43547,0 9.69146,0 0,1.74571 0,3.28005 0,5.06903 -2.81368,0 -5.58696,0 -8.64654,0 z"
   id="path19"
   style="stroke-width:0.570691" />
<path
   fill="#3773aa"
   opacity="1"
   stroke="none"
   d="m 62.00639,124.43753 c 4.67763,-0.009 9.09978,-0.009 13.80168,-0.009 0,2.99402 0,5.76156 0,8.84574 3.20344,0 6.14365,0 9.32043,0 0,1.74782 0,3.1883 0,4.88245 -4.59581,0 -9.34648,0 -14.30316,0 0,-2.76791 0,-5.55231 0,-8.6168 -3.32294,0 -6.45406,0 -10.267,0 0.45888,-1.96002 0.82571,-3.52692 1.44805,-5.1026 z"
   id="path20"
   style="stroke-width:0.570691" />
<path
   fill="#3773aa"
   opacity="1"
   stroke="none"
   d="m 39.62852,161.95926 c 3.15872,0 6.0291,0 9.04523,0 0,1.71639 0,3.16076 0,4.94601 -3.71247,0 -7.32596,0 -11.16619,0 0,3.10529 0,5.87608 0,8.83409 -4.41458,0 -8.60222,0 -12.95718,0 0,-1.50312 0,-3.04921 0,-4.85098 2.56503,0 5.03696,0 7.74192,0 0,-3.01591 0,-5.78337 0,-8.92911 2.50083,0 4.77436,0 7.33622,-1e-5 z"
   id="path21"
   style="stroke-width:0.570691" />
<path
   fill="#3976a9"
   opacity="1"
   stroke="none"
   d="m 291.92201,182.97399 c -2.31489,0.0566 -4.33836,0.0566 -6.48028,0.0566 0,-5.35386 -0.4983,-10.53228 0.12033,-15.5672 0.86262,-7.0206 7.8525,-11.29471 15.3215,-9.86869 0,2.20097 0,4.45608 0,6.92358 -0.62647,0.0389 -1.19742,0.055 -1.76436,0.11272 -4.93197,0.50137 -6.22259,1.97452 -6.37847,7.03517 -0.11558,3.75239 -0.34728,7.50103 -0.81872,11.30792 z"
   id="path22"
   style="stroke-width:0.730252" />
<path
   fill="#3672aa"
   opacity="1"
   stroke="none"
   d="m 61.16396,161.84191 c 10e-6,-2.9574 10e-6,-5.65078 10e-6,-8.66012 3.22916,0 6.06537,0 9.16355,0 0,-3.26014 0,-6.20999 0,-9.41064 1.81886,0 3.37472,0 5.10666,0 0,4.63037 0,9.26351 0,14.18864 -2.91796,0 -5.85478,0 -9.05414,0 0,2.20034 0,4.12228 0,6.21524 -1.77335,0 -3.28062,0 -5.02309,0 -0.0648,-0.69418 -0.12888,-1.38165 -0.19299,-2.33312 z"
   id="path23"
   style="stroke-width:0.570691" />
<path
   fill="#3d78ab"
   opacity="1"
   stroke="none"
   d="m 308.23093,159.68535 c 0.97536,-0.52467 1.71502,-0.93107 2.48034,-1.27833 6.90716,-3.1343 8.72055,-1.83625 8.09914,6.04101 -0.60867,0.0871 -1.26546,0.21922 -1.92823,0.26971 -4.63292,0.35282 -6.1379,1.92597 -6.24112,6.66631 -0.0799,3.67044 -0.0919,7.34244 -0.14111,11.01363 -0.001,0.11118 -0.0815,0.22138 -0.17926,0.47021 -2.2915,0 -4.63648,0 -6.9378,0 0,-5.42161 -0.49236,-10.71102 0.20754,-15.83001 0.35038,-2.56268 2.87528,-4.81444 4.6405,-7.35253 z"
   id="path24"
   style="stroke-width:0.730252" />
<path
   fill="#3773aa"
   opacity="1"
   stroke="none"
   d="m 59.91325,168.78202 c 2.19762,2e-5 4.1085,2e-5 6.20996,2e-5 0,1.64821 0,3.10094 0,4.88336 -2.89783,0 -5.92362,0 -9.27321,0 0,3.89742 0,7.48109 0,11.1942 -1.8385,0 -3.34403,0 -5.02597,0 0,-5.28704 0,-10.55067 0,-16.0776 2.64726,0 5.22487,0 8.08922,2e-5 z"
   id="path25"
   style="stroke-width:0.570691" />
<path
   fill="#427cad"
   opacity="1"
   stroke="none"
   d="m 399.18377,157.28167 c 0.75415,0.72106 1.55543,1.42784 1.56389,2.14437 0.0908,7.70376 0.0566,15.40911 0.0566,23.3879 -2.47279,0 -4.78135,0 -7.35551,0 0,-8.40278 0,-16.75409 0,-25.542 1.89705,0 3.65556,0 5.73502,0.0105 z"
   id="path26"
   style="stroke-width:0.730252" />
<path
   fill="#3d77ad"
   opacity="1"
   stroke="none"
   d="m 57.16207,163.27834 c -1.60973,0.52175 -3.19487,0.80004 -4.98735,1.11473 -0.12534,-2.50821 -0.22566,-4.516 -0.33746,-6.75375 -3.30905,0 -6.36566,0 -9.54993,0 0,-1.70043 0,-3.15487 0,-4.81188 4.87759,0 9.65873,0 14.89933,0 0,3.37317 0,6.79031 -0.0246,10.4509 z"
   id="path27"
   style="stroke-width:0.570691" />
<path
   fill="#3672aa"
   opacity="1"
   stroke="none"
   d="m 76.75786,175.45421 c -2.29373,0 -4.30121,0 -6.42507,0 0,-3.74025 0,-7.26107 0,-10.97236 1.61332,0 3.1743,0 4.9705,0 0,1.91348 0,3.75041 0,5.85576 3.26235,0 6.30782,0 9.53322,0 0,1.80318 0,3.33927 0,5.11659 -2.6344,0 -5.21341,0 -8.07865,1e-5 z"
   id="path28"
   style="stroke-width:0.570691" />
<path
   fill="#407bac"
   opacity="1"
   stroke="none"
   d="m 400.45431,147.86522 c 1.35483,2.58654 1.27668,4.9992 -1.07893,6.24666 -1.30813,0.69276 -3.85112,0.72985 -4.80846,-0.13233 -1.11856,-1.00736 -1.7598,-3.44286 -1.46174,-5.03425 0.57376,-3.06351 3.93624,-3.52316 7.34913,-1.08008 z"
   id="path29"
   style="stroke-width:0.730252" />




<path
   fill="#ffffff"
   opacity="1"
   stroke="none"
   d="m 266.88543,174.33513 c -0.47619,-0.16759 -0.73679,-0.50595 -0.9974,-0.84431 0.42631,-0.021 0.85263,-0.0422 1.44001,0.10925 0.0317,0.30313 -0.0976,0.4337 -0.44261,0.73503 z"
   id="path34"
   style="stroke-width:0.730252" />

</svg>
