<?xml version="1.0" encoding="UTF-8" standalone="no"?>
<svg
   version="1.1"
   id="Layer_1"
   x="0px"
   y="0px"
   width="100"
   viewBox="0 0 400 400"
   enable-background="new 0 0 505 371"
   xml:space="preserve"
   sodipodi:docname="Newlogo.svg"
   inkscape:export-filename="../BlueBerry AI/Website - AIBlueberryco/blueberry-website/blueberry-website/public/BlueberryNewLogo_withouttext.svg"
   inkscape:export-xdpi="400"
   inkscape:export-ydpi="400"
   inkscape:version="1.3.2 (091e20e, 2023-11-25)"
   height="137641"
   xmlns:inkscape="http://www.inkscape.org/namespaces/inkscape"
   xmlns:sodipodi="http://sodipodi.sourceforge.net/DTD/sodipodi-0.dtd"
   xmlns="http://www.w3.org/2000/svg"
   xmlns:svg="http://www.w3.org/2000/svg"><defs
   id="defs35" /><sodipodi:namedview
   id="namedview35"
   pagecolor="#ffffff"
   bordercolor="#000000"
   borderopacity="0.25"
   inkscape:showpageshadow="2"
   inkscape:pageopacity="0.0"
   inkscape:pagecheckerboard="0"
   inkscape:deskcolor="#d1d1d1"
   inkscape:zoom="1.0768194"
   inkscape:cx="182.48185"
   inkscape:cy="139.76345"
   inkscape:window-width="1392"
   inkscape:window-height="942"
   inkscape:window-x="234"
   inkscape:window-y="25"
   inkscape:window-maximized="0"
   inkscape:current-layer="Layer_1" />








<path
   fill="#3974ab"
   opacity="1"
   stroke="none"
   d="m 213.62588,127.6969 c 0.45063,7.29126 0.45063,14.28291 0.45063,21.57097 6.98661,0 12.97171,0 19.42757,0 0,3.38951 0,6.47837 0,9.92173 -9.83065,0 -19.53617,0 -29.82525,0 0,-7.1128 0,-14.07333 0,-21.67937 -7.04372,0 -13.53119,0 -20.10202,0 0,-3.63536 0,-6.61072 0,-10.11291 10.07107,0 19.83476,0 30.04907,0.29958 z"
   id="path9"
   style="stroke-width:1.17332" />
<path
   fill="#3974ab"
   opacity="1"
   stroke="none"
   d="m 315.80806,133.93899 c -3.2e-4,7.53866 -3.2e-4,14.54393 -3.2e-4,22.25711 -6.54585,0 -12.62648,0 -19.14209,0 0,6.36224 0,12.01593 0,18.08016 -3.68064,0 -6.92398,0 -10.49357,0 0,-9.30081 0,-18.51488 0,-28.33893 6.21116,0 12.11821,0 18.46396,0 0,-6.64492 0,-12.68913 0,-19.09661 3.75953,0 7.06907,0 11.17239,0 0,2.14849 0,4.35669 -3.7e-4,7.09827 z"
   id="path10"
   style="stroke-width:1.17332" />
<path
   fill="#3d77ad"
   opacity="1"
   stroke="none"
   d="m 189.61362,223.69404 c 13.58514,-0.004 13.58535,-0.004 13.59443,-12.20653 0.001,-1.88625 1.8e-4,-3.77251 1.8e-4,-6.0766 3.55621,0 6.79745,0 10.39729,0 0,9.42786 0,18.64457 0,28.4685 -6.25069,0 -12.17126,0 -18.70722,0 0,6.58591 0,12.59143 0,19.03382 -3.71189,0 -6.80458,0 -10.42713,0 0,-9.28842 0,-18.70628 0,-28.85104 1.2655,-0.10153 2.93126,-0.23493 5.14245,-0.36815 z"
   id="path11"
   style="stroke-width:1.17332" />
<path
   fill="#3b76ac"
   opacity="1"
   stroke="none"
   d="m 242.12537,141.40049 c -5.80072,-0.10064 -10.99899,-0.10064 -16.71979,-0.10064 0,-9.75347 0,-19.14712 0,-28.89637 2.98416,0 6.0944,0 10.01635,0 0,5.84866 0,11.81382 0,18.49262 6.83411,0 12.91708,0 19.20375,0 0,10.00988 0,19.28762 0,28.97983 -3.4245,0 -6.69049,0 -9.75168,0 -0.73133,-6.26126 -1.43876,-12.31794 -2.74863,-18.47535 z"
   id="path12"
   style="stroke-width:1.17332" />
<path
   fill="#3974ab"
   opacity="1"
   stroke="none"
   d="m 281.79488,230.06783 c -5.40378,-0.005 -10.20536,-0.005 -15.4957,-0.005 0,-3.27109 0,-6.35773 0,-9.81573 9.76816,0 19.45575,0 29.56701,0 0,7.1877 0,14.17684 0,21.80724 6.87587,0 13.3674,0 20.25293,0 0,3.5786 0,6.52946 0,9.95707 -10.00541,0 -20.06607,0 -30.75556,0 0,-5.95136 0.19418,-11.81473 -0.13568,-17.65137 -0.0831,-1.47228 -1.84207,-2.85902 -3.4331,-4.29117 z"
   id="path13"
   style="stroke-width:1.17332" />
<path
   fill="#3773aa"
   opacity="1"
   stroke="none"
   d="m 164.73129,179.43047 c 3.6e-4,-4.7301 3.6e-4,-8.89811 3.6e-4,-13.64537 6.80706,0 13.12318,0 20.00755,0 0,-6.39475 0,-12.21634 0,-18.36447 3.71042,0 6.83655,0 10.34306,0 0,9.23676 0,18.49308 0,28.35591 -6.19495,0 -12.4829,0 -19.61523,0 0,6.71092 0,12.85457 0,19.23937 -3.98555,0 -7.11012,0 -10.73609,0 0,-5.1624 0,-10.09285 3.5e-4,-15.58544 z"
   id="path14"
   style="stroke-width:1.17332" />
<path
   fill="#3672aa"
   opacity="1"
   stroke="none"
   d="m 330.9259,184.14461 c 1.71477,0.82608 3.92799,1.62553 3.95241,2.48141 0.25423,8.91098 0.15655,17.83104 0.15655,27.13292 -6.49449,0 -12.46415,0 -19.04299,0 0,6.34344 0,12.3267 0,18.63337 -3.68044,0 -6.74879,0 -10.13864,0 0,-9.51629 0,-18.77669 0,-28.65778 5.91784,0 11.80493,0 18.48265,0 0,-6.73981 0,-12.89306 0,-19.33317 2.55437,-0.10814 4.31337,-0.18277 6.58994,-0.25675 z"
   id="path15"
   style="stroke-width:1.17332" />
<path
   fill="#3974ab"
   opacity="1"
   stroke="none"
   d="m 285.83604,194.59907 c -1.92057,-0.10009 -3.29487,-0.19989 -4.81077,-0.30978 0,-3.17371 0,-6.147 0,-9.66567 7.81363,0 15.35088,0 23.49225,0 0,-6.14578 0,-11.7719 0,-17.94845 9.05154,0 17.52625,0 26.47228,0 0,2.74131 0,5.84089 0,9.47114 -4.86563,0 -9.79304,0 -15.30307,0 0,6.3132 0,12.124 0,18.45319 -10.1547,0 -19.72961,0 -29.85069,-4.3e-4 z"
   id="path16"
   style="stroke-width:1.17332" />
<path
   fill="#3974ab"
   opacity="1"
   stroke="none"
   d="m 263.88551,259.41168 c 4e-5,-3.73466 4e-5,-6.91445 4e-5,-10.52575 -6.4322,0 -12.17786,0 -18.43457,0 0,-9.97869 0,-19.52914 0,-29.41623 3.20064,0 6.31965,0 10.18441,0 0,3.75021 -0.002,7.49516 4.3e-4,11.24013 0.004,7.87437 0.006,7.87477 8.54741,7.87809 3.18866,0.001 6.37728,2.3e-4 9.98139,2.3e-4 0,9.67152 0,19.02874 0,28.66379 -3.23708,0 -6.35668,0 -10.27911,0 0,-2.48099 0,-4.88319 0,-7.84026 z"
   id="path17"
   style="stroke-width:1.17332" />

<path
   fill="#3773aa"
   opacity="1"
   stroke="none"
   d="m 237.28881,270.95367 c -4.38326,0 -8.17261,0 -12.64002,0 0,-6.09576 0,-11.88887 0,-18.22221 -6.78007,0 -12.89715,0 -19.36259,0 0,-3.48632 0,-6.42938 0,-9.81553 9.77572,0 19.47891,0 29.83485,0 0,5.68627 0,11.48544 0,17.70948 6.99325,0 13.35091,0 20.10573,0 0,3.55692 0,6.68318 0,10.32826 -5.83722,0 -11.5906,0 -17.93797,0 z"
   id="path19"
   style="stroke-width:1.17332" />
<path
   fill="#3773aa"
   opacity="1"
   stroke="none"
   d="m 246.38767,108.65967 c 9.70412,-0.0184 18.87824,-0.0184 28.63272,-0.0184 0,6.10039 0,11.73932 0,18.02341 6.64579,0 12.7455,0 19.336,0 0,3.56122 0,6.49623 0,9.94811 -9.53439,0 -19.39005,0 -29.67309,0 0,-5.63969 0,-11.31297 0,-17.55693 -6.89371,0 -13.38947,0 -21.29974,0 0.95199,-3.99359 1.71301,-7.1862 3.00411,-10.39668 z"
   id="path20"
   style="stroke-width:1.17332" />
<path
   fill="#3773aa"
   opacity="1"
   stroke="none"
   d="m 199.96293,185.1111 c 6.55302,0 12.50786,0 18.76508,0 0,3.49719 0,6.44012 0,10.07761 -7.70183,0 -15.19832,0 -23.16518,0 0,6.3271 0,11.97265 0,17.99967 -9.15841,0 -17.84602,0 -26.88075,0 0,-3.06264 0,-6.21284 0,-9.88399 5.32137,0 10.44959,0 16.06126,0 0,-6.14499 0,-11.78375 0,-18.19327 5.18818,0 9.90479,0 15.21959,-2e-5 z"
   id="path21"
   style="stroke-width:1.17332" />

<path
   fill="#3672aa"
   opacity="1"
   stroke="none"
   d="m 244.63998,184.87199 c 2e-5,-6.02577 2e-5,-11.5136 2e-5,-17.6452 6.69915,0 12.58312,0 19.01053,0 0,-6.64261 0,-12.653 0,-19.1744 3.77338,0 7.00114,0 10.5942,0 0,9.43448 0,18.87462 0,28.90969 -6.05355,0 -12.14623,0 -18.78356,0 0,4.48325 0,8.39925 0,12.66369 -3.67896,0 -6.80591,0 -10.42081,0 -0.13438,-1.41439 -0.26738,-2.81514 -0.40038,-4.75378 z"
   id="path23"
   style="stroke-width:1.17332" />

<path
   fill="#3773aa"
   opacity="1"
   stroke="none"
   d="m 242.04529,199.01263 c 4.55914,4e-5 8.5234,4e-5 12.88306,4e-5 0,3.35826 0,6.31825 0,9.94996 -6.01179,0 -12.28904,0 -19.23805,0 0,7.9411 0,15.24291 0,22.80846 -3.81411,0 -6.93746,0 -10.42678,0 0,-10.77247 0,-21.49724 0,-32.75849 5.49196,0 10.83941,0 16.78177,3e-5 z"
   id="path25"
   style="stroke-width:1.17332" />

<path
   fill="#3d77ad"
   opacity="1"
   stroke="none"
   d="m 236.33771,187.79876 c -3.33951,1.06306 -6.62801,1.63009 -10.34665,2.27129 -0.26003,-5.11055 -0.46816,-9.20147 -0.70011,-13.76093 -6.86489,0 -13.20607,0 -19.81211,0 0,-3.46468 0,-6.42813 0,-9.80433 10.11897,0 20.03784,0 30.9099,0 0,6.87292 0,13.83542 -0.0511,21.29397 z"
   id="path27"
   style="stroke-width:1.17332" />
<path
   fill="#3672aa"
   opacity="1"
   stroke="none"
   d="m 276.99082,212.60738 c -4.75855,0 -8.92322,0 -13.32935,0 0,-7.62085 0,-14.79461 0,-22.35644 3.34697,0 6.58535,0 10.31171,0 0,3.89875 0,7.64154 0,11.93124 6.76802,0 13.08611,0 19.77745,0 0,3.67402 0,6.80385 0,10.42518 -5.46527,0 -10.81565,0 -16.75981,2e-5 z"
   id="path28"
   style="stroke-width:1.17332" />







</svg>
