<?xml version="1.0" encoding="UTF-8" standalone="no"?>
<svg
   viewBox="0 60 420 200"
   xml:space="preserve"
   height="90"
   width="250"
   version="1.1"
   id="svg24"
   sodipodi:docname="logo2.svg"
   inkscape:version="1.3.2 (091e20e, 2023-11-25)"
   xmlns:inkscape="http://www.inkscape.org/namespaces/inkscape"
   xmlns:sodipodi="http://sodipodi.sourceforge.net/DTD/sodipodi-0.dtd"
   xmlns="http://www.w3.org/2000/svg"
   xmlns:svg="http://www.w3.org/2000/svg"><defs
     id="defs24" /><sodipodi:namedview
     id="namedview24"
     pagecolor="#ffffff"
     bordercolor="#000000"
     borderopacity="0.25"
     inkscape:showpageshadow="2"
     inkscape:pageopacity="0.0"
     inkscape:pagecheckerboard="0"
     inkscape:deskcolor="#d1d1d1"
     inkscape:zoom="4.968"
     inkscape:cx="136.87601"
     inkscape:cy="44.987923"
     inkscape:window-width="1392"
     inkscape:window-height="942"
     inkscape:window-x="0"
     inkscape:window-y="25"
     inkscape:window-maximized="0"
     inkscape:current-layer="svg24" /><path
     fill="#3d78ab"
     d="m 378.2983,155.8716 c 2.88412,-0.24119 5.4618,-0.24119 8.74008,-0.24119 v 6.97972 c 0,6.19954 -0.24154,12.41261 0.0457,18.59739 0.80515,17.32623 -9.657,23.36211 -25.64825,18.93826 v -7.9617 c 4.74318,-0.4147 9.34335,-0.47253 13.76687,-1.42744 1.22816,-0.26457 1.93357,-3.18838 2.55125,-5.348 -5.52309,2.96441 -10.75297,3.10838 -15.55022,-0.59313 -4.95107,-3.82088 -6.37391,-9.4236 -6.20927,-15.64775 0.11536,-4.36109 0.0216,-8.7271 0.0216,-13.43767 h 9.11502 c 0,2.52633 -0.005,5.1671 10e-4,7.80787 0.007,2.41928 -0.0733,4.8447 0.0613,7.25536 0.28841,5.13142 2.36979,7.69959 6.09751,7.73159 3.95606,0.0357 6.26095,-2.77245 6.40876,-7.93586 0.1394,-4.82378 0.19828,-9.65002 0.59846,-14.71745"
     style="stroke-width:0.888024"
     id="path1" /><path
     fill="#3976a9"
     d="m 136.63662,156.19524 c 6.52292,-2.20516 11.74919,-0.43685 15.86146,4.62689 4.36223,5.37137 4.91863,11.61891 2.18713,17.84306 -2.75193,6.27338 -8.14404,8.84524 -14.4867,8.87231 -9.5212,0.0394 -15.80859,-6.40504 -15.97563,-16.30487 -0.15622,-9.22055 -0.0336,-18.44726 -0.0336,-27.95823 h 9.05133 v 14.47872 c 1.38197,-0.62389 2.22918,-1.00536 3.39605,-1.55788 m -1.93957,20.04576 c 0.54077,0.4996 1.00944,1.15303 1.63433,1.4742 3.33477,1.71047 7.05889,1.66987 8.9552,-1.52589 1.3315,-2.2433 1.4012,-6.08141 0.60807,-8.74064 -1.05631,-3.53662 -4.58215,-3.78273 -7.73666,-3.13053 -4.45476,0.92291 -5.72858,4.84347 -3.46094,11.92286 m 111.81135,4.21096 c -0.9133,-2.7023 -2.28807,-5.08589 -2.35056,-7.50639 -0.25476,-9.81984 -0.10575,-19.65322 -0.10575,-29.71793 h 9.00447 v 14.24491 c 11.21682,-4.0756 19.22146,-0.83185 22.11279,8.65327 2.3073,7.57039 -0.38815,15.64776 -6.72,19.23237 -6.54696,3.70643 -16.657,3.05177 -21.94095,-4.90623 m 6.69116,-10.8289 c -0.31004,4.01777 0.25356,7.58515 4.66386,8.79233 3.72052,1.0189 7.44104,-0.87001 8.4661,-4.12606 1.36395,-4.3254 -0.17425,-8.38624 -3.69047,-9.746 -4.04378,-1.56527 -7.40498,0.0332 -9.43949,5.08097"
     style="stroke-width:0.888024"
     id="path2" /><path
     fill="#3875a8"
     d="m 404.54019,172.96156 c -0.0144,-8.97321 3.5691,-14.73468 10.24223,-16.91399 7.35812,-2.40451 15.16086,-0.10583 18.88499,6.03957 1.41562,2.33683 2.1751,5.24832 2.68343,8.00846 0.51674,2.79336 0.18987,5.7467 0.53356,8.58928 0.31966,2.658 1.03348,5.26186 1.66438,8.32225 -3.78301,-0.60543 -8.15966,2.47588 -10.19657,-3.27082 -11.78163,7.03509 -20.80773,3.01733 -23.81202,-10.77475 m 22.00945,2.52387 c 0.2139,-1.33392 0.92532,-2.85612 0.54077,-3.96239 -0.82077,-2.36143 -1.72807,-5.62118 -3.48738,-6.45057 -2.07537,-0.97829 -5.67331,-0.6362 -7.51434,0.74079 -1.56704,1.17149 -2.39142,4.72903 -2.11863,7.0474 0.72944,6.21677 6.93511,7.70451 12.57958,2.62477"
     style="stroke-width:0.888024"
     id="path3" /><path
     fill="#3b77aa"
     d="m 290.07905,176.56463 c 3.14129,0.47007 6.27176,1.07059 9.42747,1.36223 1.8194,0.16858 3.67966,-0.15874 5.43417,-0.25842 0.22472,0.48484 0.44944,0.74203 0.44583,0.99675 -0.12978,8.81694 2.06215,7.58515 -8.22575,8.7431 -6.62146,0.74572 -12.82713,-0.90569 -16.47554,-7.32181 -3.4333,-6.03834 -3.06197,-12.40154 0.6261,-18.35374 4.70111,-7.58392 18.23004,-8.83539 24.17614,-2.3036 4.1988,4.61212 2.86369,11.8884 -3.19176,14.48733 -3.17975,1.36592 -6.96756,1.17765 -11.04979,1.50621 -1.08155,-0.15998 -1.59468,-0.1329 -2.10661,-0.10706 z m 4.66987,-12.35232 -6.82575,2.43773 c 5.67691,2.83274 8.3267,2.52633 10.914,-0.9746 -1.22335,-0.52299 -2.3073,-0.98691 -4.08825,-1.46436"
     style="stroke-width:0.888024"
     id="path4" /><path
     fill="#3a76a9"
     d="m 217.6732,185.44432 c -7.61888,-5.95958 -9.69785,-14.26583 -5.77185,-21.97034 3.51743,-6.90219 11.92344,-10.02042 19.91246,-7.38826 4.58334,1.50989 7.7751,5.57442 7.67176,9.77061 -0.10215,4.17774 -3.0067,7.96662 -7.82198,9.03228 -3.53305,0.78264 -7.26077,0.60667 -11.31657,0.886 5.08687,4.33648 10.80344,1.5825 16.097,1.96889 0.16824,0.22397 0.46026,0.443 0.47348,0.68173 0.46867,7.99493 0.48669,8.36409 -7.11417,8.85508 -3.89236,0.25104 -7.87845,-1.09273 -12.13013,-1.83599 m 11.9655,-20.37062 c -3.48859,-1.59849 -6.49528,-1.0066 -9.1667,2.04641 5.53992,2.53987 7.97339,2.13625 9.1667,-2.04641"
     style="stroke-width:0.888024"
     id="path5" /><path
     fill="#3d78ab"
     d="m 188.84642,178.27018 c 5.90043,0.10829 7.59004,-1.53081 7.68257,-7.27874 0.0805,-4.97144 0.0168,-9.94289 0.0168,-15.26135 h 8.97081 c 0,6.47395 0.60206,12.98975 -0.15141,19.32957 -0.94575,7.94693 -7.66455,12.76579 -15.68001,12.40524 -7.72223,-0.34579 -13.71399,-5.67902 -14.33287,-13.54843 -0.46867,-5.95958 -0.0925,-11.99176 -0.0925,-18.26391 h 8.84224 c 0,5.20156 -0.10335,10.16439 0.036,15.12107 0.0937,3.24375 0.63571,6.41366 4.70833,7.49532"
     style="stroke-width:0.888024"
     id="path6" /><path
     fill="#3974ab"
     d="M46.214 133.78c.218 3.58.218 7.01.218 10.588h9.364v4.87H41.42v-10.64h-9.69v-4.964c4.855 0 9.56 0 14.484.147m49.255 3.063v10.924h-9.227v8.874h-5.059v-13.909h8.9v-9.372h5.386z"
     style="stroke-width:.570691"
     id="path7" /><path
     fill="#3d77ad"
     d="M34.64 180.895c6.548-.002 6.548-.002 6.553-5.99v-2.983h5.012v13.972h-9.018v9.342h-5.026v-14.16c.61-.05 1.413-.115 2.479-.18"
     style="stroke-width:.570691"
     id="path8" /><path
     fill="#3b76ac"
     d="M59.952 140.506c-2.796-.049-5.302-.049-8.06-.049v-14.182h4.829v9.076h9.256v14.223h-4.7c-.353-3.073-.694-6.046-1.325-9.068"
     style="stroke-width:.570691"
     id="path9" /><path
     fill="#3974ab"
     d="M79.074 184.024c-2.605-.003-4.92-.003-7.47-.003v-4.818h14.252v10.703h9.763v4.887H80.794c0-2.921.093-5.799-.066-8.663-.04-.723-.888-1.403-1.654-2.106"
     style="stroke-width:.570691"
     id="path10" /><path
     fill="#3773aa"
     d="M22.646 159.171v-6.697h9.644v-9.013h4.986v13.917H27.82v9.442h-5.175z"
     style="stroke-width:.570691"
     id="path11" /><path
     fill="#3672aa"
     d="M102.756 161.485c.826.405 1.893.798 1.905 1.218.123 4.373.076 8.751.076 13.316h-9.18v9.145H90.67V171.1h8.91v-9.488c1.23-.053 2.079-.09 3.176-.126"
     style="stroke-width:.570691"
     id="path12" /><path
     fill="#3974ab"
     d="M81.021 166.616c-.925-.05-1.588-.098-2.318-.152v-4.744h11.323v-8.809h12.76v4.648H95.41v9.057zM70.44 198.425v-5.166h-8.885v-14.437h4.909v5.517c.002 3.864.003 3.865 4.12 3.866h4.812v14.068H70.44z"
     style="stroke-width:.570691"
     id="path13" /><path
     fill="#407bac"
     d="m 160.08452,176.81197 v -33.64955 h 8.82781 v 43.66013 h -8.82901 z"
     style="stroke-width:0.888024"
     id="path14" /><path
     fill="#3773aa"
     d="M57.62 204.09h-6.092v-8.943h-9.334v-4.818h14.382v8.692h9.691v5.07zm4.386-79.652c4.678-.01 9.1-.01 13.802-.01v8.846h9.32v4.883H70.826v-8.617H60.558c.46-1.96.826-3.527 1.448-5.103zM39.629 161.96h9.045v4.945H37.508v8.834H24.55v-4.85h7.742v-8.93z"
     style="stroke-width:.570691"
     id="path15" /><path
     fill="#3976a9"
     d="m 320.42481,186.98498 c -2.78198,0.0701 -5.21305,0.0701 -7.78713,0.0701 0,-6.58839 -0.59965,-12.96144 0.14421,-19.15729 1.03708,-8.63851 9.43708,-13.89791 18.41271,-12.14313 v 8.51914 c -0.75348,0.0492 -1.43966,0.0677 -2.12103,0.13905 -5.92687,0.61651 -7.47709,2.43035 -7.66456,8.65696 -0.13939,4.61828 -0.41819,9.2304 -0.9842,13.91513"
     style="stroke-width:0.888024"
     id="path16" /><path
     fill="#3672aa"
     d="M61.164 161.842v-8.66h9.164v-9.41h5.106v14.188H66.38v6.215h-5.023a83 83 0 0 1-.193-2.333"
     style="stroke-width:.570691"
     id="path17" /><path
     fill="#3d78ab"
     d="m 340.02241,158.32656 c 1.17287,-0.64481 2.06215,-1.14442 2.98146,-1.57265 8.30026,-3.85656 10.47897,-2.2593 9.73391,7.43379 -0.73305,0.10706 -1.52138,0.27072 -2.31812,0.33225 -5.56755,0.43438 -7.37613,2.37005 -7.49871,8.20289 -0.0961,4.51614 -0.11176,9.03474 -0.17064,13.55334 -0.001,0.13536 -0.0985,0.27195 -0.21631,0.57836 h -8.33631 c 0,-6.67207 -0.59125,-13.18048 0.24875,-19.4797 0.4206,-3.15392 3.45614,-5.92513 5.57597,-9.04828"
     style="stroke-width:0.888024"
     id="path18" /><path
     fill="#3773aa"
     d="M59.913 168.782h6.21v4.883H56.85v11.195h-5.026v-16.078z"
     style="stroke-width:.570691"
     id="path19" /><path
     fill="#427cad"
     d="m 449.32337,155.36953 c 0.9061,0.886 1.86867,1.75724 1.87949,2.63832 0.10815,9.4802 0.0673,18.96287 0.0673,28.78024 h -8.83863 v -31.43086 c 2.27965,0 4.39227,0 6.89184,0.0123"
     style="stroke-width:0.888024"
     id="path20" /><path
     fill="#3d77ad"
     d="M57.162 163.278c-1.61.522-3.195.8-4.987 1.115l-.338-6.754h-9.55v-4.812h14.9c0 3.374 0 6.79-.025 10.451"
     style="stroke-width:.570691"
     id="path21" /><path
     fill="#3672aa"
     d="M76.758 175.454h-6.425v-10.972h4.97v5.856h9.534v5.116z"
     style="stroke-width:.570691"
     id="path22" /><path
     fill="#407bac"
     d="m 450.84955,143.78139 c 1.62833,3.18345 1.5346,6.15278 -1.29665,7.68728 -1.57184,0.85278 -4.62661,0.89831 -5.77785,-0.16243 -1.34472,-1.2404 -2.11503,-4.23681 -1.75691,-6.19585 0.68978,-3.7692 4.72995,-4.33525 8.83262,-1.329"
     style="stroke-width:0.888024"
     id="path23" /><path
     fill="#ffffff"
     d="m 290.33742,176.35421 c -0.57202,-0.20551 -0.88446,-0.62266 -1.19811,-1.03859 0.51193,-0.0258 1.02506,-0.0517 1.73047,0.13536 0.0385,0.37163 -0.11777,0.53283 -0.53236,0.90323"
     style="stroke-width:0.888024"
     id="path24" /></svg>
