<?xml version="1.0" encoding="UTF-8" standalone="no"?>
<svg
   viewBox="0 60 420 200"
   xml:space="preserve"
   height="90"
   width="250"
   version="1.1"
   id="svg24"
   sodipodi:docname="logo3.svg"
   inkscape:version="1.3.2 (091e20e, 2023-11-25)"
   inkscape:export-filename="logo3.png"
   inkscape:export-xdpi="96"
   inkscape:export-ydpi="96"
   xmlns:inkscape="http://www.inkscape.org/namespaces/inkscape"
   xmlns:sodipodi="http://sodipodi.sourceforge.net/DTD/sodipodi-0.dtd"
   xmlns="http://www.w3.org/2000/svg"
   xmlns:svg="http://www.w3.org/2000/svg"><defs
     id="defs24" /><sodipodi:namedview
     id="namedview24"
     pagecolor="#ffffff"
     bordercolor="#000000"
     borderopacity="0.25"
     inkscape:showpageshadow="2"
     inkscape:pageopacity="0.0"
     inkscape:pagecheckerboard="0"
     inkscape:deskcolor="#d1d1d1"
     inkscape:zoom="4.968"
     inkscape:cx="136.97665"
     inkscape:cy="44.987923"
     inkscape:window-width="1392"
     inkscape:window-height="942"
     inkscape:window-x="0"
     inkscape:window-y="25"
     inkscape:window-maximized="0"
     inkscape:current-layer="svg24" /><path
     fill="#3974ab"
     d="m 191.5328,113.32266 c 0.35815,5.85149 0.35815,11.4578 0.35815,17.30603 h 15.38408 v 7.95998 H 183.65676 V 121.19765 H 167.7371 v -8.11363 c 7.97626,0 15.70609,0 23.7957,0.24027 m 80.92083,5.00646 v 17.85522 h -15.159 v 14.5045 h -8.31141 v -22.73418 h 14.62177 v -15.31848 h 8.84864 z"
     style="stroke-width:0.935185"
     id="path7" /><path
     fill="#3d77ad"
     d="m 172.51793,190.33186 c 10.75768,-0.003 10.75768,-0.003 10.7659,-9.79062 v -4.8757 h 8.23419 v 22.83715 h -14.81563 v 15.26945 h -8.2572 V 190.6277 c 1.00217,-0.0817 2.32141,-0.18797 4.07274,-0.29421"
     style="stroke-width:0.935185"
     id="path8" /><path
     fill="#3b76ac"
     d="m 214.1029,124.31627 c -4.59353,-0.0801 -8.71063,-0.0801 -13.24174,-0.0801 v -23.1804 h 7.93355 v 14.83467 h 15.20664 v 23.24741 h -7.72161 c -0.57994,-5.0228 -1.14017,-9.88215 -2.17684,-14.82159"
     style="stroke-width:0.935185"
     id="path9" /><path
     fill="#3974ab"
     d="m 245.51835,195.44619 c -4.27974,-0.005 -8.08304,-0.005 -12.27243,-0.005 v -7.875 h 23.41455 v 17.49399 h 16.03959 v 7.98778 h -24.35593 c 0,-4.77436 0.15279,-9.47843 -0.10843,-14.15963 -0.0657,-1.18174 -1.45889,-2.29319 -2.71735,-3.44224"
     style="stroke-width:0.935185"
     id="path10" /><path
     fill="#3773aa"
     d="m 152.81304,154.8241 v -10.9462 h 15.84409 v -14.7317 h 8.19147 v 22.74726 h -15.53522 v 15.43289 h -8.50198 z"
     style="stroke-width:0.935185"
     id="path11" /><path
     fill="#3672aa"
     d="m 284.4254,158.60632 c 1.35704,0.66197 3.11001,1.30433 3.12972,1.99082 0.20208,7.14764 0.12486,14.30346 0.12486,21.76492 H 272.5982 v 14.94745 h -8.02883 v -22.98752 h 14.6382 V 158.8139 c 2.02076,-0.0866 3.41558,-0.1471 5.21783,-0.20594"
     style="stroke-width:0.935185"
     id="path12" /><path
     fill="#3974ab"
     d="m 248.71707,166.99291 c -1.51968,-0.0817 -2.60892,-0.16018 -3.80823,-0.24844 v -7.75404 h 18.6025 v -14.39826 h 20.96335 v 7.59713 h -12.118 v 14.80361 z m -17.38348,51.99163 v -8.4438 h -14.59713 v -23.59719 h 8.06498 v 9.0175 c 0.003,6.31569 0.005,6.31732 6.76873,6.31896 h 7.90561 v 22.99406 h -8.14219 z"
     style="stroke-width:0.935185"
     id="path13" /><path
     fill="#3773aa"
     d="m 210.27167,228.24395 h -10.00852 v -14.61728 h -15.33479 v -7.87499 h 23.62813 v 14.20702 h 15.9213 v 8.28688 z m 7.20574,-130.190735 c 7.68547,-0.0163 14.95035,-0.0163 22.67525,-0.0163 v 14.458735 h 15.31178 v 7.98123 H 231.96775 V 106.3924 H 215.0985 c 0.75573,-3.2036 1.35703,-5.76486 2.37891,-8.340815 z m -36.76307,61.329495 h 14.85999 v 8.08257 h -18.34458 v 14.43912 h -21.28864 v -7.92729 h 12.7193 v -14.59604 z"
     style="stroke-width:0.935185"
     id="path15" /><path
     fill="#3672aa"
     d="m 216.09409,159.18984 v -14.15472 h 15.0555 v -15.38059 h 8.38862 v 23.1902 h -14.87477 v 10.15838 h -8.25227 a 136.36033,135.66302 0 0 1 -0.31708,-3.81327"
     style="stroke-width:0.935185"
     id="path17" /><path
     fill="#3773aa"
     d="m 214.03883,170.53323 h 10.20238 v 7.98123 h -15.23457 v 18.29817 h -8.25719 v -26.2794 z"
     style="stroke-width:0.935185"
     id="path19" /><path
     fill="#3d77ad"
     d="m 209.51922,161.53697 c -2.64506,0.85321 -5.24905,1.3076 -8.19312,1.82246 l -0.55529,-11.03937 h -15.68966 v -7.86519 h 24.47915 c 0,5.51479 0,11.09822 -0.0411,17.0821"
     style="stroke-width:0.935185"
     id="path21" /><path
     fill="#3672aa"
     d="M 241.71341,181.43857 H 231.1578 V 163.5049 h 8.16519 v 9.5716 h 15.66337 v 8.36207 z"
     style="stroke-width:0.935185"
     id="path22" /></svg>
