<svg viewBox="0 60 420 200" xml:space="preserve" height="70" width="250" xmlns="http://www.w3.org/2000/svg"><path fill="#3d78ab" d="M340.081 157.69c2.4-.196 4.545-.196 7.273-.196v5.672c0 5.038-.201 10.087.038 15.113.67 14.08-8.036 18.985-21.343 15.39v-6.47c3.947-.337 7.775-.384 11.456-1.16 1.022-.215 1.609-2.591 2.123-4.346-4.596 2.409-8.948 2.526-12.94-.482-4.12-3.105-5.304-7.658-5.167-12.716.096-3.544.018-7.092.018-10.92h7.585c0 2.053-.004 4.199.001 6.345.006 1.966-.061 3.937.051 5.896.24 4.17 1.972 6.257 5.074 6.283 3.292.029 5.21-2.253 5.333-6.449.116-3.92.165-7.842.498-11.96" style="stroke-width:.730252"/><path fill="#3976a9" d="M138.984 157.953c5.428-1.792 9.777-.355 13.199 3.76 3.63 4.365 4.093 9.442 1.82 14.5-2.29 5.098-6.777 7.188-12.055 7.21-7.923.032-13.155-5.205-13.294-13.25-.13-7.493-.028-14.991-.028-22.72h7.532v11.766c1.15-.507 1.855-.817 2.826-1.266m-1.614 16.29c.45.406.84.937 1.36 1.198 2.775 1.39 5.874 1.357 7.452-1.24 1.108-1.823 1.166-4.942.506-7.103-.879-2.874-3.813-3.074-6.438-2.544-3.707.75-4.767 3.936-2.88 9.689m93.043 3.422c-.76-2.196-1.904-4.133-1.956-6.1-.212-7.98-.088-15.971-.088-24.15h7.493v11.576c9.334-3.312 15.995-.676 18.401 7.032 1.92 6.152-.323 12.716-5.592 15.629-5.448 3.012-13.861 2.48-18.258-3.987m5.568-8.8c-.258 3.265.211 6.164 3.881 7.145 3.096.828 6.192-.707 7.045-3.353 1.135-3.515-.145-6.815-3.071-7.92-3.365-1.272-6.162.027-7.855 4.129" style="stroke-width:.730252"/><path fill="#3875a8" d="M361.918 171.578c-.012-7.292 2.97-11.974 8.523-13.745 6.123-1.954 12.616-.086 15.715 4.908 1.178 1.899 1.81 4.265 2.233 6.508.43 2.27.158 4.67.444 6.98.266 2.16.86 4.276 1.385 6.763-3.148-.492-6.79 2.012-8.485-2.658-9.804 5.717-17.315 2.452-19.815-8.756m18.315 2.051c.178-1.084.77-2.321.45-3.22-.683-1.919-1.438-4.568-2.902-5.242-1.727-.795-4.721-.517-6.253.602-1.304.952-1.99 3.843-1.763 5.727.607 5.052 5.771 6.261 10.468 2.133" style="stroke-width:.730252"/><path fill="#3b77aa" d="M266.67 174.506c2.614.382 5.219.87 7.845 1.107 1.514.137 3.062-.129 4.522-.21.187.394.374.603.371.81-.108 7.165 1.716 6.164-6.845 7.105-5.51.606-10.674-.736-13.71-5.95-2.857-4.907-2.548-10.078.521-14.915 3.912-6.163 15.17-7.18 20.118-1.872 3.494 3.748 2.383 9.661-2.656 11.773-2.646 1.11-5.798.957-9.195 1.224-.9-.13-1.327-.108-1.753-.087zm3.886-10.038-5.68 1.981c4.724 2.302 6.929 2.053 9.082-.792-1.018-.425-1.92-.802-3.402-1.19" style="stroke-width:.730252"/><path fill="#3a76a9" d="M206.418 181.722c-6.34-4.843-8.07-11.593-4.803-17.854 2.927-5.609 9.922-8.143 16.57-6.004 3.814 1.227 6.47 4.53 6.384 7.94-.085 3.395-2.502 6.474-6.509 7.34-2.94.636-6.042.493-9.417.72 4.233 3.524 8.99 1.286 13.395 1.6.14.182.383.36.394.554.39 6.497.405 6.797-5.92 7.196-3.239.204-6.556-.888-10.094-1.492m9.957-16.554c-2.903-1.299-5.405-.818-7.628 1.663 4.61 2.064 6.635 1.736 7.628-1.663" style="stroke-width:.730252"/><path fill="#3d78ab" d="M182.43 175.892c4.91.088 6.316-1.244 6.393-5.915.067-4.04.014-8.08.014-12.402h7.465c0 5.261.501 10.556-.126 15.708-.787 6.458-6.378 10.374-13.048 10.081-6.426-.281-11.412-4.615-11.927-11.01-.39-4.843-.077-9.745-.077-14.842h7.358c0 4.227-.086 8.26.03 12.288.078 2.636.529 5.212 3.918 6.091" style="stroke-width:.730252"/><path fill="#3974ab" d="M46.214 133.78c.218 3.58.218 7.01.218 10.588h9.364v4.87H41.42v-10.64h-9.69v-4.964c4.855 0 9.56 0 14.484.147m49.255 3.063v10.924h-9.227v8.874h-5.059v-13.909h8.9v-9.372h5.386z" style="stroke-width:.570691"/><path fill="#3d77ad" d="M34.64 180.895c6.548-.002 6.548-.002 6.553-5.99v-2.983h5.012v13.972h-9.018v9.342h-5.026v-14.16c.61-.05 1.413-.115 2.479-.18" style="stroke-width:.570691"/><path fill="#3b76ac" d="M59.952 140.506c-2.796-.049-5.302-.049-8.06-.049v-14.182h4.829v9.076h9.256v14.223h-4.7c-.353-3.073-.694-6.046-1.325-9.068" style="stroke-width:.570691"/><path fill="#3974ab" d="M79.074 184.024c-2.605-.003-4.92-.003-7.47-.003v-4.818h14.252v10.703h9.763v4.887H80.794c0-2.921.093-5.799-.066-8.663-.04-.723-.888-1.403-1.654-2.106" style="stroke-width:.570691"/><path fill="#3773aa" d="M22.646 159.171v-6.697h9.644v-9.013h4.986v13.917H27.82v9.442h-5.175z" style="stroke-width:.570691"/><path fill="#3672aa" d="M102.756 161.485c.826.405 1.893.798 1.905 1.218.123 4.373.076 8.751.076 13.316h-9.18v9.145H90.67V171.1h8.91v-9.488c1.23-.053 2.079-.09 3.176-.126" style="stroke-width:.570691"/><path fill="#3974ab" d="M81.021 166.616c-.925-.05-1.588-.098-2.318-.152v-4.744h11.323v-8.809h12.76v4.648H95.41v9.057zM70.44 198.425v-5.166h-8.885v-14.437h4.909v5.517c.002 3.864.003 3.865 4.12 3.866h4.812v14.068H70.44z" style="stroke-width:.570691"/><path fill="#407bac" d="M158.496 174.707v-27.345h7.346v35.48h-7.347z" style="stroke-width:.730252"/><path fill="#3773aa" d="M57.62 204.09h-6.092v-8.943h-9.334v-4.818h14.382v8.692h9.691v5.07zm4.386-79.652c4.678-.01 9.1-.01 13.802-.01v8.846h9.32v4.883H70.826v-8.617H60.558c.46-1.96.826-3.527 1.448-5.103zM39.629 161.96h9.045v4.945H37.508v8.834H24.55v-4.85h7.742v-8.93z" style="stroke-width:.570691"/><path fill="#3976a9" d="M291.922 182.974c-2.315.057-4.338.057-6.48.057 0-5.354-.499-10.533.12-15.568.863-7.02 7.853-11.294 15.322-9.868v6.923c-.627.04-1.198.055-1.765.113-4.932.501-6.222 1.975-6.378 7.035-.116 3.753-.348 7.501-.819 11.308" style="stroke-width:.730252"/><path fill="#3672aa" d="M61.164 161.842v-8.66h9.164v-9.41h5.106v14.188H66.38v6.215h-5.023a83 83 0 0 1-.193-2.333" style="stroke-width:.570691"/><path fill="#3d78ab" d="M308.23 159.685c.976-.524 1.716-.93 2.481-1.278 6.907-3.134 8.72-1.836 8.1 6.041-.61.087-1.266.22-1.929.27-4.633.353-6.138 1.926-6.24 6.666-.08 3.67-.093 7.342-.142 11.014-.001.11-.082.221-.18.47h-6.937c0-5.422-.492-10.711.207-15.83.35-2.563 2.876-4.815 4.64-7.353" style="stroke-width:.730252"/><path fill="#3773aa" d="M59.913 168.782h6.21v4.883H56.85v11.195h-5.026v-16.078z" style="stroke-width:.570691"/><path fill="#427cad" d="M399.184 157.282c.754.72 1.555 1.428 1.564 2.144.09 7.704.056 15.41.056 23.388h-7.355v-25.542c1.897 0 3.655 0 5.735.01" style="stroke-width:.730252"/><path fill="#3d77ad" d="M57.162 163.278c-1.61.522-3.195.8-4.987 1.115l-.338-6.754h-9.55v-4.812h14.9c0 3.374 0 6.79-.025 10.451" style="stroke-width:.570691"/><path fill="#3672aa" d="M76.758 175.454h-6.425v-10.972h4.97v5.856h9.534v5.116z" style="stroke-width:.570691"/><path fill="#407bac" d="M400.454 147.865c1.355 2.587 1.277 5-1.079 6.247-1.308.693-3.85.73-4.808-.132-1.119-1.008-1.76-3.443-1.462-5.035.574-3.063 3.936-3.523 7.35-1.08" style="stroke-width:.730252"/><path fill="#fff" d="M266.885 174.335c-.476-.167-.736-.506-.997-.844.426-.021.853-.042 1.44.11.032.302-.098.433-.443.734" style="stroke-width:.730252"/></svg>